# xmcd CD database file
#
# Track frame offsets:
#	150
#	14679
#	33938
#	51234
#	68443
#	87304
#	105492
#	123537
#	138672
#	157428
#	178141
#	192785
#	207161
#	225232
#	238577
#
# Disc length: 3379 seconds
#
# Revision: 0
# Processed by: cddbd v1.5.2PL0 Copyright (c) Steve Scherf et al.
# Submitted via: CDex 1.70beta2
#
DISCID=ce0d310f
DTITLE=Mariusz Kalaga - Zapamietaj moj numer telefonu
DYEAR=1900
DGENRE=Country
TTITLE0=Agata osmy cud swiata
TTITLE1=Twoj swiat
TTITLE2=Milosc i  diament
TTITLE3=Panienka z nocnego  okienka
TTITLE4=Zapamietaj moj numer telefonu
TTITLE5=Elise
TTITLE6=Kocham to tak jak ty
TTITLE7=Zawsze ciagnie mnie do domu
TTITLE8=Piosenka szara jak popiol
TTITLE9=Zycia mala garsc
TTITLE10=Pina Colada
TTITLE11=On pije tequile
TTITLE12=Picciriko
TTITLE13=Serce wybralo juz
TTITLE14=Zyje tym co mam
EXTD=
EXTT0=
EXTT1=
EXTT2=
EXTT3=
EXTT4=
EXTT5=
EXTT6=
EXTT7=
EXTT8=
EXTT9=
EXTT10=
EXTT11=
EXTT12=
EXTT13=
EXTT14=
PLAYORDER=
